<svg xmlns="http://www.w3.org/2000/svg" viewBox="0 0 1841.4 1041.33"><defs><style>.cls-1{fill:#f93;}.cls-2{fill:#0cf;}</style></defs><title>sdiot-logo</title><g id="O"><path class="cls-1" d="M1189.36,454.47c-156.57,0-283.5,126.93-283.5,283.5s126.93,283.5,283.5,283.5S1472.87,894.54,1472.87,738,1345.94,454.47,1189.36,454.47Zm5.46,478.41c-107.65,0-194.91-87.26-194.91-194.91s87.26-194.91,194.91-194.91,194.9,87.27,194.9,194.91S1302.46,932.88,1194.82,932.88Z" transform="translate(-39 -19.67)"/></g><g id="SD"><path class="cls-2" d="M890.87,19.67H270.71L253.23,21a239.95,239.95,0,0,0-62.34,461.75,237.25,237.25,0,0,0,62.34,15.29h151c129.47,0,234.44,105,234.44,234.44S533.75,967,404.28,967H39v94H890.87c287.55,0,520.66-233.11,520.66-520.66S1178.42,19.67,890.87,19.67Zm0,947.28H634.35a327.43,327.43,0,0,0,98.41-234.43c0-160.36-114.9-293.88-266.87-322.72A330,330,0,0,0,404.28,404H278.89a144.48,144.48,0,0,1,0-289l125.39-1.36H890.87c235.62,0,426.62,191,426.62,426.62S1126.49,967,890.87,967Z" transform="translate(-39 -19.67)"/></g><g id="I"><polygon class="cls-1" points="816.43 94.05 816.43 0 695.13 0 601.08 0 481.14 0 481.14 94.05 601.08 94.05 601.08 947.28 481.14 947.28 481.14 1041.33 601.08 1041.33 695.13 1041.33 816.43 1041.33 816.43 947.28 695.13 947.28 695.13 94.05 816.43 94.05"/></g><g id="T"><polygon class="cls-1" points="1841.4 0 1256.68 0 1256.68 94.05 1502.02 94.05 1502.02 1041.33 1596.06 1041.33 1596.06 94.05 1841.4 94.05 1841.4 0"/></g></svg>